<?xml version="1.0" encoding="UTF-8" standalone="no"?>
<!-- Created with Inkscape (http://www.inkscape.org/) -->
<svg
   xmlns:svg="http://www.w3.org/2000/svg"
   xmlns="http://www.w3.org/2000/svg"
   version="1.0"
   width="921.25983"
   height="104.17323"
   id="svg2293">
  <defs
     id="defs2295" />
  <g
     transform="translate(16.41829,-646.62443)"
     id="layer1">
    <g
       transform="translate(17.716518,17.727052)"
       id="g2665">
      <path
         d="M 16.23663,658.82344 L 16.21532,715.23701 L 32.8251,715.23701 L 32.8251,658.82344 L 65.38946,658.82344 L 65.38946,646.6777 L -16.41829,646.6777 L -16.41829,658.82344 L 16.23663,658.82344 z "
         style="fill:#e40012;fill-rule:nonzero;stroke:none"
         id="path2540" />
      <path
         d="M 86.8362,690.83908 L 116.42802,690.83908 L 101.64013,660.26172 L 86.8362,690.83908 z M 92.30711,646.6777 L 110.96249,646.6777 L 145.7109,715.23701 L 127.68947,715.23701 L 121.63256,702.9315 L 81.63166,702.9315 L 75.56947,715.23701 L 57.11116,715.23701 L 92.30711,646.6777 z "
         style="fill:#e40012;fill-rule:nonzero;stroke:none"
         id="path2542" />
      <path
         d="M 176.22434,715.34356 L 176.22434,646.6777 L 159.56661,646.6777 L 159.56661,715.29029 L 176.22434,715.34356 z "
         style="fill:#e40012;fill-rule:nonzero;stroke:none"
         id="path2544" />
      <path
         d="M 223.43808,685.56529 L 223.43808,715.23701 L 239.36601,715.23701 L 239.36601,685.56529 L 276.28787,646.6777 L 255.75205,646.6777 L 231.40207,672.83359 L 207.43028,646.6777 L 187.23536,646.6777 L 223.43808,685.56529 z "
         style="fill:#e40012;fill-rule:nonzero;stroke:none"
         id="path2546" />
      <path
         d="M 351.13845,672.35418 C 351.13845,662.49909 347.08989,658.45053 334.19842,658.45053 L 313.10323,658.45053 C 300.72847,658.45053 296.11521,663.03182 296.11521,672.35418 L 296.11521,689.34749 C 296.11521,698.61658 301.62873,703.25114 313.10323,703.25114 L 334.19842,703.25114 C 345.9712,703.25114 351.13845,698.77639 351.13845,689.34749 L 351.13845,672.35418 z M 367.49257,694.03533 C 367.49257,705.80811 355.66647,715.29029 341.01704,715.29029 L 306.72673,715.29029 C 292.10394,715.29029 280.24059,705.80811 280.24059,694.03533 L 280.24059,668.03925 C 280.24059,656.26643 290.80412,646.73098 306.72673,646.73098 L 341.01704,646.73098 C 356.67861,646.73098 367.49257,656.26643 367.49257,668.03925 L 367.49257,694.03533 z "
         style="fill:#e40012;fill-rule:nonzero;stroke:none"
         id="path2548" />
      <path
         d="M 441.3256,685.56529 L 441.3256,715.23701 L 457.2536,715.23701 L 457.2536,685.56529 L 494.1701,646.6777 L 473.6609,646.6777 L 449.3163,672.83359 L 425.29119,646.6777 L 405.15488,646.6777 L 441.3256,685.56529 z "
         style="fill:#e40012;fill-rule:nonzero;stroke:none"
         id="path2550" />
      <path
         d="M 570.4004,646.62443 L 570.4004,689.29421 C 570.4004,698.66985 565.2331,703.19787 553.4071,703.19787 L 537.053,703.19787 C 525.5998,703.19787 520.0597,698.51003 520.0597,689.29421 L 520.0597,646.62443 L 504.2383,646.62443 L 504.2383,693.98205 C 504.2383,705.70156 516.0644,715.23701 530.7138,715.23701 L 560.279,715.23701 C 574.8751,715.23701 586.7545,705.70156 586.7545,693.98205 L 586.7545,646.62443 L 570.4004,646.62443 z "
         style="fill:#e40012;fill-rule:nonzero;stroke:none"
         id="path2552" />
      <path
         d="M 619.5159,703.19787 L 654.1951,703.19787 C 666.0212,703.19787 671.1352,698.72312 671.1352,689.34749 L 671.1352,672.30091 C 671.1352,662.39255 667.0866,658.39726 654.1951,658.39726 L 619.5159,658.39726 L 619.5159,703.19787 z M 602.9488,646.6777 L 661.0138,646.6777 C 676.6753,646.6777 687.4892,656.21316 687.4892,667.98598 L 687.4892,693.98205 C 687.4892,705.75484 675.6632,715.29029 661.0138,715.29029 L 602.9488,715.29029 L 602.9488,646.6777 z "
         style="fill:#e40012;fill-rule:nonzero;stroke:none"
         id="path2554" />
      <path
         d="M 704.4293,715.29029 L 778.2624,715.29029 L 778.2624,703.19787 L 721.0498,703.19787 L 721.0498,685.83165 L 771.6036,685.83165 L 771.6036,673.79246 L 721.0498,673.79246 L 721.0498,658.77017 L 777.5167,658.77017 L 777.5167,646.6777 L 704.4293,646.6777 L 704.4293,715.29029 z "
         style="fill:#e40012;fill-rule:nonzero;stroke:none"
         id="path2556" />
      <path
         d="M 849.6983,715.23701 L 869.4085,715.23701 L 869.4085,646.6777 L 853.5871,646.6777 L 853.5871,697.17829 L 812.9416,646.6777 L 792.1661,646.6777 L 792.1661,715.23701 L 807.9874,715.23701 L 807.9874,663.83087 L 849.6983,715.23701 z "
         style="fill:#e40012;fill-rule:nonzero;stroke:none"
         id="path2558" />
    </g>
  </g>
</svg>
